<?xml version="1.0" standalone="no"?>
<!DOCTYPE svg PUBLIC "-//W3C//DTD SVG 20010904//EN"
 "http://www.w3.org/TR/2001/REC-SVG-20010904/DTD/svg10.dtd">
<svg version="1.0" xmlns="http://www.w3.org/2000/svg"
 width="410.000000pt" height="410.000000pt" viewBox="0 0 410.000000 410.000000"
 preserveAspectRatio="xMidYMid meet">
<metadata>
Created by potrace 1.11, written by Peter Selinger 2001-2013
</metadata>
<g transform="translate(0.000000,410.000000) scale(0.100000,-0.100000)"
fill="#000000" stroke="none">
<path d="M2120 3308 c-195 -20 -279 -43 -439 -121 -257 -126 -439 -397 -487
-722 -16 -108 -8 -427 12 -497 3 -10 7 -28 10 -40 9 -48 13 -65 32 -118 81
-228 226 -398 427 -497 48 -24 147 -63 175 -68 3 -1 24 -5 48 -9 23 -4 54 -10
70 -14 39 -8 416 -7 487 1 132 16 120 13 375 74 46 11 48 20 50 209 0 98 1
185 1 192 -2 131 -2 219 -1 227 1 6 1 15 0 20 -1 6 -1 88 -1 183 0 94 -3 173
-7 173 -4 1 -157 3 -341 4 -272 1 -334 -1 -338 -12 -3 -8 -6 -54 -7 -103 l-1
-90 30 -5 c17 -2 115 -3 218 -2 104 1 194 -1 200 -5 15 -9 17 -606 2 -617 -5
-5 -39 -14 -75 -20 -36 -7 -84 -16 -108 -21 -72 -13 -354 -11 -424 4 -208 44
-338 120 -445 261 -65 84 -122 240 -139 375 -9 73 -9 313 0 370 33 202 96 333
220 456 134 132 313 199 542 203 95 2 263 -18 329 -39 17 -5 71 -23 121 -40
50 -16 94 -30 98 -30 6 0 76 148 80 170 1 3 5 11 9 18 6 8 -6 18 -39 32 -74
32 -252 79 -324 85 -8 1 -35 5 -60 9 -64 10 -224 12 -300 4z"/>
<path d="M817 3294 c-1 -1 -22 -5 -47 -9 -223 -32 -387 -177 -414 -365 -3 -19
-6 -154 -7 -300 -2 -303 -8 -339 -67 -398 -43 -43 -118 -71 -208 -78 -32 -2
-60 -8 -63 -13 -7 -11 -6 -179 1 -186 3 -3 30 -7 60 -9 127 -9 212 -55 250
-136 25 -52 25 -56 26 -336 1 -305 9 -367 57 -449 57 -99 168 -177 290 -204
28 -6 64 -13 80 -17 28 -6 73 -8 118 -5 16 1 17 11 15 93 l-3 92 -80 17 c-103
21 -146 41 -179 80 -56 66 -58 81 -61 389 -2 157 -6 295 -9 308 -3 12 -8 30
-10 40 -9 36 -40 86 -76 122 -39 39 -128 86 -173 92 -15 2 -27 7 -27 11 0 4 0
12 0 19 0 6 3 9 6 5 8 -8 112 31 149 56 65 44 116 122 131 199 4 18 8 148 9
288 1 140 5 275 9 300 16 88 101 169 192 184 16 2 29 5 29 6 0 1 16 4 35 6 61
8 60 7 60 104 0 49 -3 91 -7 91 -16 3 -84 5 -86 3z"/>
<path d="M3195 3286 c-2 -6 -3 -49 -2 -96 l2 -84 44 -8 c173 -30 239 -87 267
-232 2 -10 4 -138 4 -284 1 -242 3 -269 22 -321 12 -31 25 -57 29 -59 5 -2 9
-8 9 -13 0 -33 153 -126 215 -131 24 -2 33 -28 10 -30 -26 -2 -116 -39 -153
-62 -51 -32 -88 -80 -112 -146 -17 -45 -19 -83 -20 -324 0 -150 -5 -287 -10
-305 -5 -17 -9 -34 -9 -36 -1 -3 -1 -6 -2 -7 0 -2 -2 -12 -4 -23 -2 -11 -9
-21 -14 -23 -6 -2 -11 -9 -11 -15 0 -14 -84 -72 -117 -82 -13 -3 -35 -9 -50
-12 -16 -3 -35 -6 -43 -8 -8 -2 -25 -4 -36 -4 -21 -1 -22 -5 -20 -98 l1 -98
40 1 c110 2 248 43 331 98 54 37 126 122 139 166 4 14 11 30 15 35 17 21 24
131 25 385 1 190 5 277 15 308 32 100 134 154 308 161 21 1 22 4 22 101 l0
100 -27 1 c-77 3 -113 8 -131 18 -11 6 -21 8 -24 6 -2 -3 -28 10 -58 28 -39
24 -60 45 -79 82 -25 49 -25 50 -26 320 -1 148 -5 295 -9 325 -23 161 -147
294 -326 348 -79 24 -210 35 -215 18z"/>
</g>
</svg>
